<svg width="225" height="30" viewBox="0 0 225 30" fill="none" xmlns="http://www.w3.org/2000/svg">
<path d="M0.4 29L13.28 0.399999H23.16L36.04 29H29.08L26.36 22.96H10.08L7.36 29H0.4ZM12.4 17.76H24.04L18.48 5.4H17.96L12.4 17.76ZM62.7944 29H56.9944V0.399999H62.7944V29ZM61.7944 29H47.9944C44.421 29 41.6344 28.12 39.6344 26.36C37.6344 24.6 36.6344 22.0533 36.6344 18.72C36.6344 15.36 37.6344 12.8 39.6344 11.04C41.6344 9.28 44.421 8.4 47.9944 8.4H61.3944V13H47.9944C46.261 13 44.9277 13.48 43.9944 14.44C43.0877 15.3733 42.6344 16.8 42.6344 18.72C42.6344 20.6133 43.0877 22.04 43.9944 23C44.9277 23.9333 46.261 24.4 47.9944 24.4H61.7944V29ZM77.76 29.2C74.1867 29.2 71.4 28.32 69.4 26.56C67.4 24.7733 66.4 22.16 66.4 18.72C66.4 15.2533 67.4 12.64 69.4 10.88C71.4 9.09333 74.1867 8.2 77.76 8.2H87.76C90.1067 8.2 91.8933 8.76 93.12 9.88C94.3733 10.9733 95 12.5467 95 14.6C95 18.7867 92.5867 20.88 87.76 20.88H72.64C73.2 23.36 74.9067 24.6 77.76 24.6H93.96V29.2H77.76ZM77.76 12.8C75.0133 12.8 73.32 13.96 72.68 16.28H87.48C88.0133 16.28 88.4267 16.12 88.72 15.8C89.04 15.48 89.2 15.04 89.2 14.48C89.2 13.36 88.6267 12.8 87.48 12.8H77.76ZM98.6063 29V0.399999H104.406V8.4H118.246C120.593 8.4 122.38 8.96 123.606 10.08C124.86 11.1733 125.486 12.7467 125.486 14.8C125.486 18.16 123.886 20.16 120.686 20.8L125.566 29H119.046L114.326 21.04H104.406V29H98.6063ZM117.966 12.96H104.406V16.48H117.966C118.5 16.48 118.913 16.32 119.206 16C119.526 15.68 119.686 15.24 119.686 14.68C119.686 13.5333 119.113 12.96 117.966 12.96ZM135.713 29C133.366 29 131.646 28.4133 130.553 27.24C129.486 26.0667 128.953 24.5467 128.953 22.68V8.4H134.753V22C134.753 23.6 135.553 24.4 137.153 24.4H145.473C147.073 24.4 147.873 23.6 147.873 22V8.4H153.673V22.68C153.673 24.5467 153.126 26.0667 152.033 27.24C150.966 28.4133 149.26 29 146.913 29H135.713ZM157.864 29V8.4H175.824C178.171 8.4 179.877 8.98667 180.944 10.16C182.037 11.3067 182.584 12.8267 182.584 14.72V29H176.784V15.4C176.784 13.8 175.984 13 174.384 13H163.664V29H157.864ZM186.77 29V0.399999H192.57V29H186.77ZM207.526 29.2C203.952 29.2 201.166 28.32 199.166 26.56C197.166 24.7733 196.166 22.16 196.166 18.72C196.166 15.2533 197.166 12.64 199.166 10.88C201.166 9.09333 203.952 8.2 207.526 8.2H217.526C219.872 8.2 221.659 8.76 222.886 9.88C224.139 10.9733 224.766 12.5467 224.766 14.6C224.766 18.7867 222.352 20.88 217.526 20.88H202.406C202.966 23.36 204.672 24.6 207.526 24.6H223.726V29.2H207.526ZM207.526 12.8C204.779 12.8 203.086 13.96 202.446 16.28H217.246C217.779 16.28 218.192 16.12 218.486 15.8C218.806 15.48 218.966 15.04 218.966 14.48C218.966 13.36 218.392 12.8 217.246 12.8H207.526Z" fill="white" fill-opacity="0.8"/>
</svg>
