<svg width="133" height="30" viewBox="0 0 133 30" fill="none" xmlns="http://www.w3.org/2000/svg">
<path d="M0.8 29V0.479998H7.2V12.12H16.72L26.12 0.479998H34.08L22.32 14.72L34.08 29H26.12L16.68 17.32H7.2V29H0.8ZM43.2444 29C40.8977 29 39.1777 28.4133 38.0844 27.24C37.0177 26.0667 36.4844 24.5467 36.4844 22.68V8.4H42.2844V22C42.2844 23.6 43.0844 24.4 44.6844 24.4H53.0044C54.6044 24.4 55.4044 23.6 55.4044 22V8.4H61.2044V22.68C61.2044 24.5467 60.6577 26.0667 59.5644 27.24C58.4977 28.4133 56.791 29 54.4444 29H43.2444ZM65.3953 29V8.4H83.3553C85.702 8.4 87.4086 8.98667 88.4753 10.16C89.5686 11.3067 90.1153 12.8267 90.1153 14.72V29H84.3153V15.4C84.3153 13.8 83.5153 13 81.9153 13H71.1953V29H65.3953ZM94.3016 29V0.399999H100.102V29H94.3016ZM115.057 29.2C111.484 29.2 108.697 28.32 106.697 26.56C104.697 24.7733 103.697 22.16 103.697 18.72C103.697 15.2533 104.697 12.64 106.697 10.88C108.697 9.09333 111.484 8.2 115.057 8.2H125.057C127.404 8.2 129.19 8.76 130.417 9.88C131.67 10.9733 132.297 12.5467 132.297 14.6C132.297 18.7867 129.884 20.88 125.057 20.88H109.937C110.497 23.36 112.204 24.6 115.057 24.6H131.257V29.2H115.057ZM115.057 12.8C112.31 12.8 110.617 13.96 109.977 16.28H124.777C125.31 16.28 125.724 16.12 126.017 15.8C126.337 15.48 126.497 15.04 126.497 14.48C126.497 13.36 125.924 12.8 124.777 12.8H115.057Z" fill="white" fill-opacity="0.8"/>
</svg>
