<svg width="196" height="94" viewBox="0 0 196 94" fill="none" xmlns="http://www.w3.org/2000/svg">
<path d="M22.032 93C14.5227 93 9.01867 91.1227 5.52 87.368C2.10667 83.6133 0.4 78.7493 0.4 72.776V27.08H18.96V70.6C18.96 75.72 21.52 78.28 26.64 78.28H53.264C58.384 78.28 60.944 75.72 60.944 70.6V27.08H79.504V72.776C79.504 78.7493 77.7547 83.6133 74.256 87.368C70.8427 91.1227 65.3813 93 57.872 93H22.032ZM139.379 93.64C123.763 93.64 111.56 89.7573 102.771 81.992C94.067 74.1413 89.715 62.536 89.715 47.176C89.715 31.9013 94.1523 20.3813 103.027 12.616C111.987 4.76533 124.958 0.839996 141.939 0.839996H190.579V17.48H143.347C132.168 17.48 123.891 19.8267 118.515 24.52C113.224 29.2133 110.579 36.7653 110.579 47.176C110.579 57.0747 112.926 64.4133 117.619 69.192C122.312 73.8853 129.182 76.4453 138.227 76.872V41.288H195.571V93.64H139.379ZM157.427 77H175.091V57.928H157.427V77Z" fill="url(#paint0_linear_1388_86)" fill-opacity="0.89"/>
<defs>
<linearGradient id="paint0_linear_1388_86" x1="99.5" y1="-26" x2="99.5" y2="128" gradientUnits="userSpaceOnUse">
<stop offset="0.17"/>
<stop offset="1" stop-color="#027A48" stop-opacity="0.87"/>
</linearGradient>
</defs>
</svg>
