<svg width="25" height="24" viewBox="0 0 25 24" fill="none" xmlns="http://www.w3.org/2000/svg">
<g clip-path="url(#clip0_2001_362)">
<g clip-path="url(#clip1_2001_362)">
<path d="M15.454 7.07325C14.8736 7.07342 14.3164 7.3014 13.9024 7.70816C13.4883 8.11491 13.2505 8.66793 13.24 9.24825L13.218 10.4513C13.2169 10.5159 13.2021 10.5797 13.1746 10.6382C13.147 10.6967 13.1074 10.7488 13.0582 10.7908C13.0091 10.8329 12.9515 10.8641 12.8894 10.8822C12.8273 10.9004 12.7621 10.9052 12.698 10.8963L11.506 10.7343C9.93701 10.5203 8.43401 9.79725 6.99201 8.59625C6.53501 11.1243 7.42701 12.8763 9.57601 14.2273L10.91 15.0663C10.9732 15.1063 11.0256 15.1612 11.0628 15.2262C11.0999 15.2911 11.1207 15.3641 11.1233 15.4389C11.1258 15.5137 11.1101 15.5879 11.0775 15.6553C11.0448 15.7226 10.9963 15.7809 10.936 15.8253L9.72001 16.7133C10.444 16.7583 11.13 16.7263 11.7 16.6133C15.304 15.8933 17.7 13.1823 17.7 8.70825C17.7 8.34325 16.927 7.07325 15.454 7.07325ZM11.712 9.21925C11.7253 8.48292 11.9556 7.76688 12.3739 7.16078C12.7922 6.55468 13.3801 6.08545 14.0638 5.81185C14.7476 5.53824 15.4968 5.47242 16.2178 5.62262C16.9388 5.77282 17.5994 6.13237 18.117 6.65625C18.66 6.65325 19.122 6.79025 20.156 6.16425C19.9 7.41625 19.774 7.96025 19.228 8.70825C19.228 14.5463 15.64 17.3843 12 18.1113C9.50301 18.6093 5.87301 17.7913 4.83301 16.7053C5.36301 16.6633 7.51701 16.4323 8.76301 15.5213C7.70901 14.8263 3.51601 12.3593 6.27101 5.72525C7.56501 7.23525 8.87601 8.26425 10.205 8.80925C11.09 9.17225 11.307 9.16425 11.712 9.22025V9.21925Z" fill="white"/>
</g>
</g>
<defs>
<clipPath id="clip0_2001_362">
<rect width="24" height="24" fill="white" transform="translate(0.934082)"/>
</clipPath>
<clipPath id="clip1_2001_362">
<rect width="24" height="24" fill="white" transform="translate(0.934082)"/>
</clipPath>
</defs>
</svg>
